<?xml version="1.0" standalone="no"?>
<!DOCTYPE svg PUBLIC "-//W3C//DTD SVG 20010904//EN"
 "http://www.w3.org/TR/2001/REC-SVG-20010904/DTD/svg10.dtd">
<svg version="1.0" xmlns="http://www.w3.org/2000/svg"
 width="1254.000000pt" height="1254.000000pt" viewBox="0 0 1254.000000 1254.000000"
 preserveAspectRatio="xMidYMid meet">

<g transform="translate(0.000000,1254.000000) scale(0.100000,-0.100000)"
fill="#000000" stroke="none">
<path d="M0 6270 l0 -6270 6270 0 6270 0 0 6270 0 6270 -6270 0 -6270 0 0
-6270z m5286 4555 c80 -47 119 -149 93 -242 -14 -53 -81 -128 -123 -139 l-25
-6 -3 -297 c-2 -163 -2 -306 0 -318 l3 -23 485 0 484 0 2 263 c1 144 3 286 3
315 l1 52 -52 30 c-129 72 -148 238 -40 338 71 65 150 76 236 32 19 -10 45
-29 57 -42 54 -57 69 -167 34 -237 -23 -45 -81 -98 -116 -107 l-25 -6 0 -319
0 -319 490 0 490 0 0 319 0 319 -25 6 c-13 3 -41 21 -61 39 -106 92 -97 255
19 334 110 74 240 41 300 -76 46 -91 33 -176 -38 -247 -24 -24 -55 -46 -69
-50 l-26 -6 0 -319 0 -319 283 0 c155 0 313 -5 350 -10 254 -37 475 -197 588
-425 79 -161 82 -178 87 -512 l4 -293 391 0 392 0 21 49 c16 35 35 58 65 78
37 25 52 28 119 28 67 0 82 -3 117 -28 91 -63 117 -187 58 -283 -49 -78 -139
-117 -222 -95 -57 16 -104 51 -130 96 -38 69 -14 65 -361 65 -174 0 -347 -3
-384 -7 l-68 -6 0 -433 0 -434 394 0 394 0 12 35 c15 44 92 113 137 121 61 11
130 -1 174 -31 120 -84 111 -276 -17 -351 -58 -34 -140 -37 -200 -6 -47 24
-65 43 -94 100 l-21 44 -327 -2 c-180 -1 -355 -5 -389 -7 l-63 -5 0 -439 0
-439 393 0 392 0 23 50 c33 71 84 103 171 108 87 5 143 -23 186 -93 62 -100
27 -238 -74 -292 -113 -60 -261 -3 -296 115 l-6 22 -395 0 -394 0 0 -277 c0
-153 -5 -312 -10 -353 -24 -184 -118 -366 -250 -482 -63 -55 -134 -104 -113
-77 7 9 9 20 5 24 -4 5 -1 5 5 1 15 -8 114 64 138 100 14 22 12 28 -7 25 -4 0
-5 6 -1 15 5 13 7 13 14 2 5 -8 9 -9 9 -2 0 6 -8 18 -17 25 -11 10 -14 10 -9
2 4 -7 3 -13 -2 -13 -5 0 -22 -10 -36 -21 -22 -17 -25 -24 -14 -31 10 -8 9 -9
-3 -5 -19 6 -39 -10 -39 -31 0 -8 -8 -21 -17 -28 -29 -22 -37 -16 -12 7 14 12
9 10 -13 -5 -20 -14 -41 -26 -47 -26 -6 0 -11 -4 -11 -10 0 -5 -7 -6 -17 -3
-9 4 -14 2 -10 -3 3 -5 -6 -11 -21 -12 -26 -2 -64 -17 -90 -35 -7 -6 -29 -11
-50 -12 -159 -11 -300 -24 -314 -30 -9 -3 -18 -15 -21 -26 -5 -18 1 -19 76
-20 55 0 75 -3 62 -9 -11 -5 -129 -9 -262 -9 l-243 -1 0 -310 0 -310 49 -25
c59 -29 84 -60 106 -126 14 -42 15 -58 6 -95 -15 -61 -54 -120 -90 -139 -42
-21 -52 -19 -15 4 26 16 31 24 26 47 -3 19 -2 25 7 19 7 -4 10 -14 6 -22 -5
-14 -3 -14 11 -2 10 8 12 15 5 17 -6 2 -8 9 -5 14 5 7 2 8 -6 3 -10 -6 -12 -3
-7 11 7 18 7 18 -8 0 -8 -11 -15 -24 -15 -29 0 -4 -4 -5 -10 -2 -5 3 -10 1
-10 -4 0 -6 -7 -11 -16 -11 -12 0 -9 6 11 22 51 40 68 113 40 171 -32 68 -126
98 -195 62 -36 -18 -70 -81 -70 -128 0 -74 79 -142 155 -133 37 4 38 3 20 -10
-11 -8 -25 -12 -32 -10 -7 3 -10 -1 -6 -10 4 -12 -2 -14 -31 -11 -21 3 -34 1
-29 -4 5 -5 25 -10 45 -11 20 -2 34 -6 32 -10 -7 -11 -75 3 -116 23 -39 20
-63 50 -50 64 4 5 1 5 -6 1 -8 -5 -19 7 -33 40 -39 87 -7 195 74 247 23 15 47
27 54 27 10 0 13 63 13 315 l0 315 -490 0 -490 0 0 -312 0 -313 49 -21 c89
-39 134 -161 97 -259 -33 -84 -137 -145 -223 -129 -25 5 -31 9 -21 16 8 6 4 7
-13 3 -21 -5 -35 1 -63 26 -52 45 -76 97 -76 161 1 91 45 160 123 193 l37 15
0 310 0 310 -495 0 -495 0 2 -312 3 -311 30 -10 c51 -16 104 -76 122 -136 58
-201 -179 -354 -335 -217 -112 98 -89 282 43 346 l45 22 0 308 0 308 -342 4
c-319 4 -348 6 -418 27 -273 82 -476 291 -552 567 -19 71 -21 111 -25 399 l-4
320 -132 -2 c-73 -1 -242 -2 -377 -3 l-245 0 -25 -47 c-28 -53 -72 -88 -134
-104 -150 -40 -288 98 -254 256 15 73 82 138 159 155 49 11 63 10 107 -4 67
-23 98 -48 127 -107 l25 -49 375 0 375 0 0 440 0 440 -378 0 -378 0 -22 -45
c-39 -80 -135 -128 -225 -111 -56 10 -123 62 -148 112 -23 49 -28 129 -10 175
14 39 66 94 105 113 41 20 135 21 179 3 39 -17 104 -87 113 -122 l6 -25 379 0
379 0 0 435 0 435 -378 0 -378 0 -21 -44 c-47 -95 -165 -141 -261 -101 -127
53 -175 203 -102 318 40 64 100 90 189 85 89 -5 139 -36 172 -107 l24 -50 376
-1 377 0 5 283 c6 324 15 376 93 528 91 176 243 310 425 376 126 46 197 53
523 53 l296 0 0 319 0 319 -25 6 c-35 9 -105 74 -122 113 -7 18 -13 56 -13 85
1 168 172 267 316 183z m3014 -5510 c0 -6 -56 -35 -67 -35 -4 1 8 9 27 20 39
22 40 22 40 15z m-100 -50 c0 -6 -129 -45 -149 -44 -9 0 18 11 59 23 85 27 90
28 90 21z m-192 -52 c-10 -2 -28 -2 -40 0 -13 2 -5 4 17 4 22 1 32 -1 23 -4z
m-621 -1039 c-3 -3 -12 -4 -19 -1 -8 3 -5 6 6 6 11 1 17 -2 13 -5z m-5347
-599 l0 -85 -457 0 c-291 0 -472 -4 -496 -11 -61 -17 -77 -53 -77 -177 0 -57
5 -112 10 -122 23 -43 38 -45 450 -50 l395 -5 45 -27 c25 -14 57 -39 72 -55
51 -53 58 -87 58 -269 0 -162 -1 -168 -27 -216 -28 -52 -82 -96 -142 -116 -24
-9 -182 -12 -537 -12 l-504 0 0 85 0 84 491 3 491 3 29 33 c28 32 29 35 29
143 0 108 -1 111 -28 138 l-28 28 -394 5 c-440 6 -441 6 -513 76 -59 58 -77
119 -77 271 0 153 15 215 68 273 20 23 60 52 87 64 l50 24 503 0 502 0 0 -85z
m6530 0 l0 -85 -446 0 c-494 0 -496 0 -535 -64 -18 -29 -19 -56 -19 -379 0
-292 2 -353 15 -377 31 -60 31 -60 525 -64 248 -2 454 -6 457 -10 3 -3 -197
-7 -446 -8 -248 -2 -451 0 -451 5 0 19 -60 5 -89 -22 -17 -16 -38 -31 -46 -35
-20 -7 -10 -26 13 -26 15 0 15 -2 2 -11 -12 -9 -12 -10 4 -5 14 5 17 2 12 -9
-3 -10 -2 -13 5 -10 5 4 17 1 26 -7 13 -10 111 -14 462 -19 l446 -5 -460 0
-460 1 -50 31 c-59 36 -111 100 -124 152 -5 20 -11 215 -13 432 l-3 395 24 48
c30 60 101 123 160 141 37 12 141 15 519 15 l472 1 0 -85z m-4020 -135 l0
-140 265 0 265 0 0 -85 0 -85 -265 0 -265 0 0 -225 c0 -152 4 -232 12 -250 23
-50 47 -55 293 -55 l225 0 0 -85 0 -85 -255 0 c-194 0 -264 3 -289 14 -51 21
-107 76 -132 131 l-24 50 0 478 0 477 85 0 85 0 0 -140z m4968 -119 c55 -11
111 -55 140 -111 21 -42 22 -54 21 -270 -2 -202 -3 -216 -12 -139 l-9 87 -27
-14 c-40 -20 -64 -27 -83 -25 -16 2 -18 -8 -18 -93 0 -88 -2 -97 -26 -123
l-25 -28 21 31 c20 29 21 40 18 252 -3 215 -4 222 -26 244 -22 23 -24 23 -285
21 l-262 -3 -23 -26 c-22 -26 -23 -29 -20 -254 2 -125 0 -226 -4 -223 -5 2 -8
13 -8 23 0 23 -31 90 -41 90 -3 0 -12 -7 -19 -15 -7 -8 -18 -15 -25 -15 -7 0
-16 -12 -20 -27 -4 -19 -9 -23 -14 -14 -14 23 -23 -56 -11 -99 6 -23 28 -60
48 -83 35 -39 36 -40 7 -20 -17 12 -42 43 -55 70 -25 48 -25 50 -25 333 l0
285 27 47 c32 53 84 89 143 99 59 10 563 10 613 0z m1040 -1 l72 0 0 -79 0
-80 -257 -3 c-276 -3 -290 -6 -312 -55 -7 -14 -12 -113 -13 -246 -1 -178 -3
-200 -7 -110 -5 96 -9 114 -26 127 -24 18 -35 20 -35 5 0 -6 -9 -8 -20 -4 -11
4 -20 2 -20 -4 0 -21 -30 -10 -32 12 -1 12 -5 -84 -8 -213 -5 -232 -6 -230 -8
123 -2 390 -1 400 56 460 64 68 108 77 347 72 105 -3 223 -5 263 -5z m998 -5
c56 -16 105 -61 128 -117 20 -47 21 -258 2 -303 -11 -27 -12 -23 -8 40 l4 70
-22 -20 c-22 -20 -55 -21 -77 -3 -8 7 -10 3 -7 -14 3 -18 1 -16 -10 7 -9 17
-15 23 -16 14 0 -9 -9 -28 -21 -43 l-20 -26 -315 0 c-282 0 -347 -5 -301 -23
6 -3 -6 -6 -28 -6 -22 0 -49 6 -59 14 -43 33 -46 24 -48 -147 l-1 -163 -9 235
c-5 129 -7 261 -4 293 8 101 73 180 165 198 20 4 162 7 317 8 220 1 291 -2
330 -14z m-9019 -294 c87 -154 160 -280 163 -280 3 0 77 126 165 279 l159 280
94 0 c85 0 93 -2 88 -17 -9 -22 -108 -197 -363 -643 -214 -374 -244 -415 -321
-438 -22 -7 -74 -12 -116 -12 l-76 0 0 85 0 85 64 0 c80 0 98 14 160 124 l45
79 -21 41 c-21 43 -62 115 -267 474 -66 117 -121 215 -121 217 0 3 42 5 94 5
l94 0 159 -279z m1561 253 c29 -14 64 -41 78 -60 50 -65 54 -100 54 -456 l0
-328 -84 0 -84 0 -7 176 c-4 97 -5 213 -2 258 3 44 3 114 -1 155 -12 115 0
111 -323 111 l-269 0 0 -350 0 -350 -84 0 -85 0 -3 288 c-2 158 -2 353 0 435
l3 147 378 0 377 0 52 -26z m1932 -59 l0 -85 -255 0 c-269 0 -294 -4 -314 -47
-7 -16 -11 -129 -11 -338 l0 -315 -85 0 -85 0 0 338 c0 392 2 406 77 472 26
22 60 44 77 49 17 5 158 10 314 10 l282 1 0 -85z m998 52 c23 -15 54 -46 69
-69 l28 -42 3 -363 3 -363 -401 0 c-430 0 -443 1 -498 53 -50 46 -62 87 -62
209 0 137 15 178 80 223 l43 30 334 3 333 3 0 69 c0 62 -2 70 -26 89 -26 20
-38 21 -365 21 l-339 0 0 85 0 86 378 -3 378 -3 42 -28z m3889 -393 c-3 -3
-12 -4 -19 -1 -8 3 -5 6 6 6 11 1 17 -2 13 -5z m753 -17 c0 -2 -10 -12 -22
-23 l-23 -19 19 23 c18 21 26 27 26 19z m-55 -47 c-3 -5 -12 -10 -18 -10 -7 0
-6 4 3 10 19 12 23 12 15 0z m-332 -27 c-45 -2 -122 -2 -170 0 -48 1 -11 3 82
3 94 0 133 -2 88 -3z m245 0 c-16 -2 -40 -2 -55 0 -16 2 -3 4 27 4 30 0 43 -2
28 -4z m-2569 -179 c14 -12 -19 -1 -35 12 -18 14 -18 14 6 3 14 -6 27 -13 29
-15z m329 -11 c-60 -2 -156 -2 -215 0 -60 1 -11 3 107 3 118 0 167 -2 108 -3z
m-1653 -13 c-3 -5 -13 -10 -22 -10 -13 0 -14 -2 -2 -17 10 -11 10 -14 2 -9
-13 7 -17 -4 -13 -33 1 -10 -4 -11 -17 -6 -10 4 -27 10 -38 13 -16 4 -13 7 15
17 19 7 35 18 35 25 0 7 9 16 20 21 27 10 27 10 20 -1z m2005 -53 c0 -2 -12
-14 -27 -28 l-28 -24 24 28 c23 25 31 32 31 24z m-765 -75 c-3 -3 -11 0 -18 7
-9 10 -8 11 6 5 10 -3 15 -9 12 -12z m48 -9 c-7 -2 -19 -2 -25 0 -7 3 -2 5 12
5 14 0 19 -2 13 -5z m-2008 -534 c-3 -4 -20 -7 -39 -6 -19 0 -33 4 -30 9 3 4
20 7 39 6 19 -1 32 -5 30 -9z m-4715 -39 c0 -5 -12 -10 -27 -10 l-28 0 3 -75
c2 -49 0 -75 -7 -75 -7 0 -11 28 -11 75 0 73 -1 75 -24 75 -14 0 -28 5 -31 10
-4 6 18 10 59 10 37 0 66 -4 66 -10z m240 0 c0 -5 -18 -10 -40 -10 -38 0 -40
-2 -40 -30 0 -28 2 -30 43 -32 l42 -1 -42 -4 c-41 -4 -43 -5 -43 -38 0 -33 2
-34 43 -38 40 -3 40 -4 -10 -5 l-53 -2 0 85 0 85 50 0 c28 0 50 -4 50 -10z
m264 -12 c21 -29 13 -35 -13 -9 -25 25 -39 26 -69 5 -17 -11 -22 -25 -22 -56
0 -70 48 -100 91 -57 11 11 23 18 27 15 13 -14 -37 -49 -70 -48 -96 3 -89 172
7 172 24 0 39 -7 49 -22z m218 -43 c24 -35 46 -65 49 -65 3 0 5 27 5 61 -1 33
2 63 6 65 4 3 8 -33 8 -80 0 -47 -4 -86 -9 -86 -5 0 -28 30 -52 67 l-44 67 -3
-67 c-4 -97 -22 -83 -22 18 0 50 4 85 10 85 5 0 29 -29 52 -65z m344 44 c27
-30 26 -102 -3 -130 -26 -27 -75 -29 -102 -5 -37 33 -34 113 6 144 26 19 77
15 99 -9z m184 -58 l0 -80 43 -4 c40 -3 40 -4 -10 -5 l-53 -2 0 85 c0 50 4 85
10 85 6 0 10 -33 10 -79z m339 53 c55 -69 -5 -174 -82 -145 -78 30 -55 171 28
171 24 0 39 -7 54 -26z m285 4 c22 -31 11 -36 -18 -9 -45 43 -104 -6 -92 -74
9 -45 43 -64 81 -47 31 14 35 52 5 52 -11 0 -20 5 -20 10 0 6 14 10 30 10 27
0 30 -3 30 -34 0 -29 -5 -36 -34 -50 -24 -11 -41 -14 -58 -7 -41 15 -52 41
-49 109 3 57 93 86 125 40z m176 -63 c0 -50 -4 -85 -10 -85 -6 0 -10 35 -10
85 0 50 4 85 10 85 6 0 10 -35 10 -85z m251 4 c31 -83 33 -89 20 -89 -5 0 -12
11 -15 25 -5 21 -12 25 -41 25 -29 0 -37 -5 -45 -25 -5 -14 -14 -25 -20 -25
-5 0 4 36 20 81 17 44 30 83 30 86 0 2 5 3 12 1 7 -3 24 -38 39 -79z m796 -52
c-2 -23 -3 -1 -3 48 0 50 1 68 3 42 2 -26 2 -67 0 -90z m223 65 l45 -67 3 68
c4 97 22 83 22 -18 0 -104 -10 -108 -64 -25 -21 33 -43 63 -48 66 -6 4 -9 -19
-6 -60 1 -36 0 -66 -4 -66 -5 0 -8 38 -8 85 0 47 3 85 8 85 4 0 27 -31 52 -68z
m339 42 c21 -26 27 -76 15 -109 -4 -8 -20 -23 -36 -31 -25 -13 -35 -13 -60 -3
-78 32 -56 169 27 169 24 0 39 -7 54 -26z m190 -44 c13 -38 27 -67 32 -65 4 3
17 34 29 70 12 36 26 65 31 65 11 0 13 9 -20 -85 -16 -44 -35 -81 -42 -83 -9
-2 -24 24 -42 75 -29 84 -31 93 -19 93 4 0 18 -31 31 -70z m324 -8 c30 -86 31
-92 18 -92 -5 0 -12 11 -15 25 -5 21 -12 25 -41 25 -29 0 -37 -5 -45 -25 -5
-14 -14 -25 -20 -25 -5 0 4 37 20 82 17 45 30 83 30 85 0 2 6 3 13 3 6 0 24
-35 40 -78z m281 62 c22 -21 20 -41 -1 -22 -33 28 -53 29 -79 3 -61 -61 8
-164 72 -105 13 13 26 21 29 19 8 -8 -25 -49 -40 -49 -9 0 -13 -10 -12 -27 1
-19 -3 -28 -15 -31 -10 -2 -18 1 -18 7 0 6 8 11 17 11 11 0 1 14 -28 40 -40
36 -44 43 -44 85 0 37 5 51 24 66 28 23 74 25 95 3z m247 -21 c6 -21 20 -59
30 -85 11 -27 14 -48 9 -48 -6 0 -15 11 -20 25 -8 20 -16 25 -45 25 -29 0 -36
-4 -41 -25 -3 -14 -11 -25 -16 -25 -6 0 -8 6 -5 13 2 6 15 45 28 85 12 39 28
72 35 72 7 0 18 -17 25 -37z m308 11 c37 -47 22 -128 -26 -141 -66 -17 -103
13 -103 83 0 55 26 84 74 84 25 0 40 -7 55 -26z m825 10 c35 -35 1 -94 -54
-94 -27 0 -30 -3 -30 -30 0 -16 -4 -30 -10 -30 -6 0 -10 35 -10 85 l0 85 44 0
c27 0 51 -6 60 -16z m256 6 c0 -5 -19 -10 -43 -10 -43 0 -43 -1 -39 -30 4 -27
8 -30 46 -32 l41 -1 -42 -4 c-41 -4 -43 -5 -43 -38 0 -33 2 -34 43 -38 40 -3
40 -4 -10 -5 l-53 -2 0 85 0 85 50 0 c28 0 50 -4 50 -10z m252 -16 c10 -22 9
-31 -5 -56 -11 -18 -14 -35 -9 -42 15 -19 22 -46 12 -46 -5 0 -16 16 -25 36
-11 28 -19 35 -37 32 -18 -2 -24 -11 -29 -38 -4 -29 -7 -21 -13 42 -5 42 -5
81 -2 87 4 6 27 11 52 11 38 0 46 -4 56 -26z m248 16 c0 -5 -18 -10 -40 -10
-38 0 -40 -2 -40 -30 0 -28 2 -30 43 -32 l42 -1 -42 -4 c-43 -4 -43 -4 -43
-44 0 -21 -4 -39 -10 -39 -6 0 -10 35 -10 85 l0 85 50 0 c28 0 50 -4 50 -10z
m270 -17 c17 -22 21 -37 17 -72 -6 -54 -26 -75 -73 -75 -48 0 -74 31 -74 88 0
54 28 86 75 86 25 0 39 -7 55 -27z m267 -2 c10 -20 9 -30 -4 -51 -14 -24 -14
-29 1 -58 22 -43 3 -41 -23 3 -13 22 -28 35 -41 35 -16 0 -20 -6 -20 -35 0
-19 -4 -35 -10 -35 -6 0 -10 35 -10 86 l0 85 47 -3 c39 -2 50 -8 60 -27z m201
-37 c13 -32 27 -63 31 -67 4 -4 20 24 35 63 16 40 33 69 40 67 14 -5 21 -167
6 -167 -6 0 -10 26 -10 62 0 69 -6 69 -35 -4 -11 -29 -26 -53 -32 -55 -6 -2
-22 24 -36 59 l-26 63 -1 -62 c0 -35 -4 -63 -10 -63 -6 0 -10 35 -10 86 0 102
13 107 48 18z m369 -19 c17 -47 26 -85 22 -85 -5 0 -15 11 -21 25 -9 19 -19
25 -45 25 -27 0 -35 -5 -43 -25 -5 -14 -13 -25 -18 -25 -5 0 4 38 21 85 16 47
35 85 41 85 6 0 26 -38 43 -85z m228 20 c22 -35 43 -64 48 -65 4 0 7 29 7 65
0 37 4 65 10 65 6 0 10 -35 10 -85 0 -107 -12 -110 -71 -17 l-44 67 -3 -67
c-4 -98 -22 -84 -22 17 0 105 11 109 65 20z m339 43 c21 -29 13 -35 -13 -9
-26 26 -42 26 -72 2 -18 -14 -24 -29 -24 -61 0 -65 53 -92 96 -49 11 11 24 18
27 14 4 -4 -6 -18 -22 -32 -31 -27 -66 -25 -98 4 -26 23 -25 106 2 133 28 28
84 27 104 -2z m261 12 c-3 -5 -24 -10 -46 -10 -37 0 -39 -2 -39 -30 0 -28 2
-30 43 -32 l42 -1 -42 -4 c-41 -4 -43 -5 -43 -38 0 -33 1 -34 48 -38 46 -3 46
-3 -10 -5 l-58 -2 0 85 0 85 56 0 c34 0 53 -4 49 -10z m-5794 -40 c27 -15 26
-66 -2 -80 -16 -9 -26 -8 -45 5 -30 19 -31 49 -2 69 27 19 24 19 49 6z m2683
-6 c9 -8 16 -24 16 -34 0 -22 -25 -50 -45 -50 -20 0 -45 28 -45 50 0 22 25 50
45 50 7 0 21 -7 29 -16z m-5856 -29 c17 -17 -46 -20 -389 -21 -355 -2 -379 -1
-379 16 0 16 23 17 381 14 210 -2 384 -6 387 -9z m9882 -5 c0 -20 -7 -20 -309
-20 -196 0 -312 4 -316 10 -17 27 17 30 316 30 302 0 309 0 309 -20z"/>
<path d="M5124 10766 c-62 -27 -95 -98 -75 -159 37 -110 183 -130 241 -34 69
113 -45 245 -166 193z"/>
<path d="M6210 10772 c-53 -24 -90 -75 -90 -125 0 -43 29 -97 64 -118 115 -70
255 65 186 179 -35 57 -109 87 -160 64z"/>
<path d="M7273 10765 c-45 -19 -73 -69 -73 -128 0 -40 5 -53 34 -85 33 -35 38
-37 95 -37 54 0 64 3 91 31 73 73 51 188 -43 223 -37 14 -65 13 -104 -4z"/>
<path d="M4435 9674 c-197 -42 -370 -176 -457 -355 -84 -170 -78 -39 -78
-1827 0 -1554 0 -1591 20 -1668 33 -130 82 -217 180 -315 68 -69 102 -94 170
-127 170 -84 -6 -77 1990 -77 l1775 0 76 27 c113 40 195 92 279 177 86 87 137
174 172 296 l23 80 0 1620 0 1620 -34 97 c-80 232 -248 390 -479 449 -73 18
-128 19 -1821 18 -1497 -1 -1756 -3 -1816 -15z m2452 -910 c4 -11 -406 -406
-444 -428 -12 -7 -271 -13 -784 -16 l-766 -5 -49 -30 c-130 -81 -153 -264 -46
-368 75 -73 65 -71 572 -78 503 -6 507 -6 647 -74 153 -75 270 -190 342 -339
65 -134 73 -179 78 -461 5 -271 10 -305 65 -402 54 -97 175 -180 297 -203 32
-6 250 -10 535 -10 403 0 485 -2 502 -14 11 -8 61 -61 110 -117 49 -56 122
-139 162 -185 49 -55 70 -87 66 -98 -6 -14 -70 -16 -693 -16 -430 0 -710 4
-751 11 -177 28 -342 111 -466 234 -129 128 -201 257 -259 465 -4 14 -10 144
-14 290 l-6 265 -30 53 c-31 57 -80 102 -142 130 -34 15 -91 18 -508 22 -458
5 -472 6 -534 28 -245 88 -409 265 -471 508 -94 368 153 756 535 839 81 18
2046 16 2052 -1z m1277 -831 c5 -12 -45 -67 -191 -210 -109 -107 -208 -199
-221 -204 -13 -5 -219 -9 -477 -9 -423 0 -457 -1 -516 -20 -75 -23 -157 -76
-195 -125 -14 -19 -30 -35 -34 -35 -4 0 -11 16 -14 35 -12 61 -93 208 -156
284 -61 71 -61 73 -43 93 33 38 163 116 243 147 149 58 171 59 916 60 625 1
682 0 688 -16z m-2266 -1381 c12 -38 16 -64 10 -68 -5 -4 -33 -13 -61 -22 -45
-14 -157 -16 -858 -19 -715 -3 -807 -2 -819 11 -10 14 16 44 181 213 107 109
200 201 209 205 8 4 274 7 590 7 l575 1 50 24 c28 13 59 31 70 39 20 15 20 13
26 -156 5 -132 11 -187 27 -235z"/>
<path d="M6353 6403 c-7 -2 -13 -9 -13 -14 0 -6 -11 -20 -25 -32 -19 -17 -23
-28 -18 -50 3 -16 13 -31 22 -35 23 -9 48 -41 65 -87 10 -24 28 -48 46 -58 17
-10 30 -22 30 -28 0 -5 9 -9 21 -9 11 0 37 -13 57 -29 102 -79 197 -87 1069
-93 319 -2 415 0 424 10 10 9 10 12 1 12 -7 0 -12 7 -12 15 0 16 -47 65 -142
149 -37 32 -66 62 -63 66 2 3 -11 14 -30 23 -38 18 -254 24 -440 12 -55 -3
-208 -1 -340 5 -297 13 -365 19 -365 31 0 5 -9 9 -20 9 -10 0 -28 10 -40 22
-11 12 -20 19 -20 15 0 -4 -11 -2 -25 3 -15 6 -26 6 -30 0 -11 -18 -21 -10
-35 25 -10 26 -18 34 -31 30 -10 -3 -20 -1 -24 5 -6 10 -40 12 -62 3z"/>
<path d="M5680 6682 c-8 -3 -26 -13 -39 -23 -13 -11 -34 -19 -47 -19 -12 0
-30 -3 -40 -7 -16 -6 -16 -7 2 -14 10 -4 -7 -5 -38 -2 -40 4 -58 2 -58 -6 0
-6 7 -11 16 -11 20 0 44 -24 44 -44 0 -10 16 -17 54 -21 59 -8 208 -1 225 10
13 7 15 35 3 35 -4 0 -13 20 -21 44 -11 38 -17 45 -49 53 -21 5 -44 7 -52 5z"/>
<path d="M5420 6610 c0 -5 5 -10 10 -10 6 0 10 5 10 10 0 6 -4 10 -10 10 -5 0
-10 -4 -10 -10z"/>
<path d="M5478 6553 c7 -3 16 -2 19 1 4 3 -2 6 -13 5 -11 0 -14 -3 -6 -6z"/>
<path d="M2761 8632 c-48 -26 -73 -75 -68 -132 4 -36 13 -51 46 -82 33 -31 48
-38 81 -38 81 0 140 57 140 135 0 103 -107 166 -199 117z"/>
<path d="M9624 8640 c-31 -12 -72 -66 -80 -105 -15 -83 48 -155 138 -155 36 0
54 6 78 26 59 50 74 107 44 170 -29 61 -113 91 -180 64z"/>
<path d="M2780 7673 c-23 -9 -60 -45 -76 -75 -44 -84 23 -188 121 -188 106 0
171 116 115 208 -30 48 -106 75 -160 55z"/>
<path d="M9624 7670 c-31 -12 -72 -66 -80 -105 -13 -71 29 -133 106 -156 77
-23 170 52 170 137 0 36 -36 97 -70 117 -30 18 -91 21 -126 7z"/>
<path d="M9624 6691 c-76 -35 -107 -128 -64 -198 25 -41 68 -63 122 -63 149 0
191 199 55 260 -52 24 -62 24 -113 1z"/>
<path d="M2755 6680 c-61 -40 -81 -116 -47 -179 65 -121 252 -73 252 64 0 105
-119 172 -205 115z"/>
<path d="M8499 5593 c-12 -16 -12 -17 2 -6 9 7 19 10 22 6 4 -3 7 -1 7 5 0 17
-16 15 -31 -5z"/>
<path d="M8524 5573 c9 -17 -14 -28 -25 -12 -5 8 -9 9 -9 3 0 -6 7 -17 15 -24
11 -9 15 -9 15 -1 0 7 4 10 9 7 11 -7 8 21 -4 31 -4 4 -5 3 -1 -4z"/>
<path d="M8490 5500 c-6 -11 -8 -20 -6 -20 3 0 10 9 16 20 6 11 8 20 6 20 -3
0 -10 -9 -16 -20z"/>
<path d="M7370 4545 c-10 -12 -8 -16 11 -24 15 -5 30 -4 41 3 16 10 16 11 -5
23 -29 16 -32 16 -47 -2z"/>
<path d="M5124 4500 c-27 -11 -72 -65 -80 -96 -17 -68 29 -142 103 -164 35
-11 46 -10 87 8 109 49 109 203 0 248 -37 16 -78 17 -110 4z"/>
<path d="M6182 4489 c-43 -28 -62 -67 -62 -125 0 -40 5 -51 38 -84 69 -70 155
-62 209 19 81 120 -64 267 -185 190z"/>
<path d="M7204 4272 c3 -6 0 -12 -6 -15 -18 -6 5 -30 30 -32 25 -2 18 26 -10
44 -11 7 -17 8 -14 3z"/>
<path d="M7487 2545 c-3 -7 3 -21 14 -31 18 -16 19 -16 13 -1 -3 9 -11 17 -18
18 -6 0 -2 4 8 8 17 6 17 8 4 14 -9 3 -19 0 -21 -8z"/>
<path d="M10953 3150 c-34 -14 -43 -42 -43 -134 l0 -86 293 0 c350 0 337 -4
337 109 0 53 -4 74 -19 92 l-19 24 -264 2 c-144 1 -273 -2 -285 -7z"/>
<path d="M6360 2782 c-34 -28 -40 -117 -10 -154 l21 -28 294 0 293 0 7 73 c4
40 5 84 3 97 l-3 25 -291 3 c-271 2 -293 1 -314 -16z"/>
<path d="M3183 1855 c-52 -36 -30 -134 30 -135 27 0 57 37 57 70 0 19 -9 40
-25 55 -28 29 -33 30 -62 10z"/>
<path d="M3702 1854 c-44 -30 -21 -134 29 -134 33 0 59 30 59 69 0 62 -45 96
-88 65z"/>
<path d="M4446 1816 c-20 -49 -21 -46 14 -46 34 0 35 5 16 51 l-14 33 -16 -38z"/>
<path d="M5790 1862 c-42 -13 -56 -95 -22 -125 43 -39 92 -7 92 60 0 49 -31
78 -70 65z"/>
<path d="M6321 1827 c-17 -44 -14 -57 14 -57 29 0 30 6 11 51 l-14 34 -11 -28z"/>
<path d="M6862 1817 c-16 -45 -16 -47 14 -47 24 0 26 2 20 32 -9 48 -20 52
-34 15z"/>
<path d="M7122 1854 c-45 -31 -21 -134 31 -134 29 0 57 37 57 75 0 36 -28 75
-53 75 -7 0 -23 -7 -35 -16z"/>
<path d="M7950 1824 c0 -34 1 -35 31 -32 63 6 67 68 4 68 -33 0 -35 -2 -35
-36z"/>
<path d="M8450 1832 c0 -37 4 -41 43 -33 26 6 32 12 32 31 0 22 -5 25 -37 28
-36 3 -38 2 -38 -26z"/>
<path d="M8972 1854 c-17 -12 -22 -25 -22 -58 0 -47 22 -76 57 -76 50 0 73 90
33 130 -24 24 -38 25 -68 4z"/>
<path d="M9242 1828 c3 -30 6 -33 33 -30 38 5 49 15 40 41 -5 16 -15 21 -41
21 -34 0 -35 -1 -32 -32z"/>
<path d="M9848 1845 c-3 -6 -9 -25 -13 -42 -6 -31 -5 -33 19 -33 14 0 26 6 26
13 -1 22 -26 71 -32 62z"/>
</g>
</svg>
