<?xml version="1.0" standalone="no"?>
<!DOCTYPE svg PUBLIC "-//W3C//DTD SVG 20010904//EN"
 "http://www.w3.org/TR/2001/REC-SVG-20010904/DTD/svg10.dtd">
<svg version="1.0" xmlns="http://www.w3.org/2000/svg"
 width="500.000000pt" height="500.000000pt" viewBox="0 0 500.000000 500.000000"
 preserveAspectRatio="xMidYMid meet">

<g transform="translate(0.000000,500.000000) scale(0.100000,-0.100000)"
fill="#000000" stroke="none">
<path d="M2276 2663 c-12 -12 -100 -32 -118 -27 -10 3 -18 1 -18 -3 0 -11 147
-31 161 -22 6 4 6 15 0 32 -11 29 -14 31 -25 20z"/>
<path d="M2538 2564 c-34 -18 -37 -54 -7 -72 12 -7 19 -16 16 -19 -9 -9 31
-46 42 -39 5 4 14 -1 19 -11 5 -9 16 -18 23 -19 8 -2 32 -8 54 -13 22 -6 149
-11 283 -11 l242 0 -16 25 c-9 14 -22 25 -29 25 -7 0 -16 7 -19 16 -3 8 -11
12 -17 8 -7 -4 -9 -3 -5 4 3 6 -4 18 -16 27 -20 13 -45 15 -186 9 -192 -8
-293 5 -311 40 -7 12 -10 14 -7 5 3 -11 -2 -15 -17 -14 -12 1 -27 -5 -33 -13
-9 -12 -13 -12 -19 -2 -5 9 -4 11 3 6 7 -4 12 -1 12 9 0 11 5 15 15 11 8 -3
15 -1 15 4 0 6 -4 10 -10 10 -5 0 -7 7 -4 15 7 18 6 18 -28 -1z"/>
<path d="M3356 2174 c-9 -8 -16 -12 -16 -7 0 4 -6 1 -13 -7 -19 -25 -96 -51
-169 -57 -41 -4 -65 -10 -61 -16 19 -30 233 24 233 60 0 8 4 12 9 9 4 -3 16 3
26 14 21 24 13 27 -9 4z"/>
<path d="M2940 1680 c-13 -8 -13 -10 2 -10 9 0 20 5 23 10 8 13 -5 13 -25 0z"/>
<path d="M4613 1203 c4 -6 -2 -18 -12 -27 -16 -15 -37 -17 -135 -14 -88 2
-117 0 -121 -10 -3 -10 -10 -10 -24 -2 -11 5 -22 10 -25 10 -3 0 -6 -31 -6
-68 0 -55 4 -73 20 -90 20 -21 29 -22 180 -22 l160 0 0 25 0 25 -135 0 c-123
0 -137 2 -156 21 -11 11 -19 28 -17 37 3 15 22 18 142 22 130 5 139 6 157 29
26 32 25 54 -2 46 -14 -5 -19 -3 -15 3 3 6 1 14 -5 18 -7 4 -9 3 -6 -3z"/>
<path d="M3816 1138 c3 -4 0 -8 -5 -8 -6 0 -10 -3 -10 -7 5 -28 -3 -64 -17
-77 -12 -13 -38 -16 -118 -16 -110 0 -125 6 -127 49 -1 17 -3 20 -6 9 -2 -10
-9 -18 -14 -18 -6 0 -8 10 -5 23 3 12 3 16 0 9 -3 -6 -9 -10 -13 -8 -17 11 -5
-73 13 -93 18 -19 30 -21 152 -21 73 0 140 3 149 6 29 11 46 60 39 112 -5 37
-10 48 -24 48 -10 0 -16 -4 -14 -8z"/>
<path d="M3963 1143 c-9 -3 -13 -30 -13 -84 l0 -79 31 0 c28 0 31 3 25 23 -3
12 -6 50 -6 85 0 62 -5 69 -37 55z"/>
<path d="M3040 1031 c12 -9 10 -11 -12 -11 -31 0 -39 -24 -12 -34 9 -3 101 -6
205 -6 l189 0 0 25 0 26 -172 -1 c-95 -1 -182 1 -193 5 -16 6 -17 5 -5 -4z
m-10 -31 c0 -5 -2 -10 -4 -10 -3 0 -8 5 -11 10 -3 6 -1 10 4 10 6 0 11 -4 11
-10z"/>
</g>
</svg>
